<?xml version="1.0" encoding="UTF-8" standalone="no"?>
<!-- Generator: Adobe Illustrator 15.0.0, SVG Export Plug-In . SVG Version: 6.00 Build 0)  -->

<svg
   xmlns:dc="http://purl.org/dc/elements/1.1/"
   xmlns:cc="http://creativecommons.org/ns#"
   xmlns:rdf="http://www.w3.org/1999/02/22-rdf-syntax-ns#"
   xmlns:svg="http://www.w3.org/2000/svg"
   xmlns="http://www.w3.org/2000/svg"
   xmlns:xlink="http://www.w3.org/1999/xlink"
   xmlns:sodipodi="http://sodipodi.sourceforge.net/DTD/sodipodi-0.dtd"
   xmlns:inkscape="http://www.inkscape.org/namespaces/inkscape"
   version="1.1"
   id="Layer_1"
   x="0px"
   y="0px"
   width="48"
   height="48"
   viewBox="0 0 48 48"
   enable-background="new 0 0 800 600"
   xml:space="preserve"
   inkscape:version="0.48.2 r9819"
   sodipodi:docname="gnome-dev-ipod.svg"><metadata
   id="metadata273"><rdf:RDF><cc:Work
       rdf:about=""><dc:format>image/svg+xml</dc:format><dc:type
         rdf:resource="http://purl.org/dc/dcmitype/StillImage" /></cc:Work></rdf:RDF></metadata><defs
   id="defs271"><linearGradient
   inkscape:collect="always"
   xlink:href="#SVGID_1_"
   id="linearGradient3370"
   gradientUnits="userSpaceOnUse"
   gradientTransform="translate(0,-552)"
   x1="318.68701"
   y1="300.67581"
   x2="498.68549"
   y2="300.67581" /><linearGradient
   inkscape:collect="always"
   xlink:href="#SVGID_2_"
   id="linearGradient3372"
   gradientUnits="userSpaceOnUse"
   x1="330.78909"
   y1="235.75681"
   x2="485.78909"
   y2="235.75681" /><linearGradient
   inkscape:collect="always"
   xlink:href="#SVGID_3_"
   id="linearGradient3374"
   gradientUnits="userSpaceOnUse"
   x1="322.0015"
   y1="110.751"
   x2="334.49509"
   y2="110.751" /><linearGradient
   inkscape:collect="always"
   xlink:href="#SVGID_4_"
   id="linearGradient3376"
   gradientUnits="userSpaceOnUse"
   x1="322.0015"
   y1="111.7534"
   x2="334.49509"
   y2="111.7534" /><linearGradient
   inkscape:collect="always"
   xlink:href="#SVGID_1_"
   id="linearGradient3496"
   gradientUnits="userSpaceOnUse"
   gradientTransform="translate(0,-552)"
   x1="318.68701"
   y1="300.67581"
   x2="498.68549"
   y2="300.67581" /><linearGradient
   inkscape:collect="always"
   xlink:href="#SVGID_2_"
   id="linearGradient3498"
   gradientUnits="userSpaceOnUse"
   x1="330.78909"
   y1="235.75681"
   x2="485.78909"
   y2="235.75681" /><linearGradient
   inkscape:collect="always"
   xlink:href="#SVGID_3_"
   id="linearGradient3500"
   gradientUnits="userSpaceOnUse"
   x1="322.0015"
   y1="110.751"
   x2="334.49509"
   y2="110.751" /><linearGradient
   inkscape:collect="always"
   xlink:href="#SVGID_4_"
   id="linearGradient3502"
   gradientUnits="userSpaceOnUse"
   x1="322.0015"
   y1="111.7534"
   x2="334.49509"
   y2="111.7534" />
	
	
	
	
<linearGradient
   inkscape:collect="always"
   xlink:href="#SVGID_1_"
   id="linearGradient3739"
   gradientUnits="userSpaceOnUse"
   gradientTransform="translate(0,-552)"
   x1="318.68701"
   y1="300.67581"
   x2="498.68549"
   y2="300.67581" /><linearGradient
   inkscape:collect="always"
   xlink:href="#SVGID_2_"
   id="linearGradient3741"
   gradientUnits="userSpaceOnUse"
   x1="330.78909"
   y1="235.75681"
   x2="485.78909"
   y2="235.75681" /><linearGradient
   inkscape:collect="always"
   xlink:href="#SVGID_3_"
   id="linearGradient3743"
   gradientUnits="userSpaceOnUse"
   x1="322.0015"
   y1="110.751"
   x2="334.49509"
   y2="110.751" /><linearGradient
   inkscape:collect="always"
   xlink:href="#SVGID_4_"
   id="linearGradient3745"
   gradientUnits="userSpaceOnUse"
   x1="322.0015"
   y1="111.7534"
   x2="334.49509"
   y2="111.7534" /></defs><sodipodi:namedview
   pagecolor="#ffffff"
   bordercolor="#666666"
   borderopacity="1"
   objecttolerance="10"
   gridtolerance="10"
   guidetolerance="10"
   inkscape:pageopacity="0"
   inkscape:pageshadow="2"
   inkscape:window-width="1280"
   inkscape:window-height="747"
   id="namedview269"
   showgrid="false"
   showguides="true"
   inkscape:guide-bbox="true"
   inkscape:zoom="4.3133514"
   inkscape:cx="61.716767"
   inkscape:cy="64.50059"
   inkscape:window-x="0"
   inkscape:window-y="0"
   inkscape:window-maximized="1"
   inkscape:current-layer="Layer_1" />
<linearGradient
   id="SVGID_1_"
   gradientUnits="userSpaceOnUse"
   x1="318.68701"
   y1="300.67581"
   x2="498.68549"
   y2="300.67581"
   gradientTransform="translate(0,-552)">
	<stop
   offset="0"
   style="stop-color:#560F29"
   id="stop4" />
	<stop
   offset="0.03"
   style="stop-color:#C4015F"
   id="stop6" />
	<stop
   offset="0.05"
   style="stop-color:#D00055"
   id="stop8" />
	<stop
   offset="0.21"
   style="stop-color:#B90055"
   id="stop10" />
	<stop
   offset="0.34"
   style="stop-color:#C00262"
   id="stop12" />
	<stop
   offset="0.42"
   style="stop-color:#C9046D"
   id="stop14" />
	<stop
   offset="0.5"
   style="stop-color:#D70E78"
   id="stop16" />
	<stop
   offset="0.72"
   style="stop-color:#FF519C"
   id="stop18" />
	<stop
   offset="0.74"
   style="stop-color:#FF539E"
   id="stop20" />
	<stop
   offset="0.75"
   style="stop-color:#C9046D"
   id="stop22" />
	<stop
   offset="0.76"
   style="stop-color:#CD046C"
   id="stop24" />
	<stop
   offset="0.78"
   style="stop-color:#CC0369"
   id="stop26" />
	<stop
   offset="0.85"
   style="stop-color:#C20464"
   id="stop28" />
	<stop
   offset="0.91"
   style="stop-color:#980146"
   id="stop30" />
	<stop
   offset="0.95"
   style="stop-color:#991350"
   id="stop32" />
	<stop
   offset="0.99"
   style="stop-color:#F093C8"
   id="stop34" />
</linearGradient>

<g
   id="g3620"
   transform="matrix(0.12164514,0,0,0.12164514,-25.714728,54.749763)"><rect
     style="fill:url(#linearGradient3739);stroke:none"
     id="rect36"
     height="375"
     width="179.99899"
     stroke-miterlimit="10"
     y="-438.82401"
     x="318.68701" /><g
     transform="translate(0,-552)"
     id="g40">
		<path
   stroke-miterlimit="10"
   d="m 408.688,349.757 c -35.9,0 -65.001,29.102 -65.001,65 0,35.898 29.102,65 65.001,65 35.898,0 65,-29.102 65,-65 0,-35.898 -29.102,-65 -65,-65 z m 0,98 c -18.227,0 -33.001,-14.774 -33.001,-33 0,-18.226 14.774,-33 33.001,-33 18.225,0 33,14.774 33,33 0,18.226 -14.776,33 -33,33 z"
   id="path42"
   inkscape:connector-curvature="0"
   style="fill:#ffffff;stroke:#000000;stroke-miterlimit:10" />
		<g
   id="g44">
			<path
   d="m 400.908,366.531 c -0.06,-1.128 -0.131,-2.495 -0.131,-3.49 h -0.024 c -0.288,0.936 -0.612,1.955 -1.02,3.07 l -1.427,3.922 h -0.792 l -1.319,-3.851 c -0.384,-1.15 -0.695,-2.182 -0.923,-3.142 h -0.024 c -0.024,1.007 -0.084,2.351 -0.156,3.573 l -0.216,3.467 h -0.995 l 0.563,-8.084 h 1.332 l 1.379,3.91 c 0.336,0.996 0.6,1.883 0.815,2.723 h 0.024 c 0.216,-0.815 0.503,-1.703 0.863,-2.723 l 1.439,-3.91 h 1.333 l 0.504,8.084 H 401.1 l -0.192,-3.549 z"
   id="path46"
   inkscape:connector-curvature="0"
   style="fill:#616872" />
			<path
   d="m 407.918,366.291 h -3.131 v 2.915 h 3.502 v 0.875 h -4.557 v -8.084 h 4.377 v 0.876 h -3.322 v 2.555 h 3.131 v 0.863 z"
   id="path48"
   inkscape:connector-curvature="0"
   style="fill:#616872" />
			<path
   d="m 409.648,370.081 v -8.084 h 1.15 l 2.58,4.09 c 0.586,0.947 1.066,1.799 1.438,2.627 l 0.037,-0.012 c -0.096,-1.08 -0.121,-2.063 -0.121,-3.322 v -3.383 h 0.984 v 8.084 h -1.055 l -2.566,-4.102 c -0.564,-0.9 -1.104,-1.823 -1.5,-2.699 l -0.035,0.013 c 0.059,1.019 0.07,1.991 0.07,3.334 v 3.454 h -0.982 z"
   id="path50"
   inkscape:connector-curvature="0"
   style="fill:#616872" />
			<path
   d="m 418.588,361.997 v 4.798 c 0,1.799 0.803,2.566 1.883,2.566 1.188,0 1.967,-0.792 1.967,-2.566 v -4.798 h 1.055 v 4.726 c 0,2.483 -1.307,3.49 -3.059,3.49 -1.654,0 -2.902,-0.936 -2.902,-3.454 v -4.762 h 1.056 z"
   id="path52"
   inkscape:connector-curvature="0"
   style="fill:#616872" />
		</g>
		<g
   id="g54">
			<polygon
   points="447.027,408.128 451.035,410.445 455.041,412.763 451.031,415.074 447.021,417.386 447.023,412.757 "
   id="polygon56"
   style="fill:#616872" />
			<polygon
   points="455.049,408.128 459.055,410.445 463.063,412.763 459.053,415.074 455.041,417.386 455.045,412.757 "
   id="polygon58"
   style="fill:#616872" />
			<rect
   x="462.54099"
   y="408.12799"
   width="1.604"
   height="9.2580004"
   id="rect60"
   style="fill:#616872" />
		</g>
		<g
   id="g62">
			<polygon
   points="402.563,455.645 406.57,457.962 410.576,460.279 406.566,462.591 402.557,464.902 402.559,460.273 "
   id="polygon64"
   style="fill:#616872" />
			<rect
   x="411.05701"
   y="455.64499"
   width="1.604"
   height="9.2580004"
   id="rect66"
   style="fill:#616872" />
			<rect
   x="413.215"
   y="455.64499"
   width="1.604"
   height="9.2580004"
   id="rect68"
   style="fill:#616872" />
		</g>
		<g
   id="g70">
			<polygon
   points="369.938,408.66 365.931,410.978 361.924,413.295 365.934,415.606 369.945,417.918 369.942,413.289 "
   id="polygon72"
   style="fill:#616872" />
			<polygon
   points="361.917,408.66 357.911,410.978 353.904,413.295 357.914,415.606 361.924,417.918 361.921,413.289 "
   id="polygon74"
   style="fill:#616872" />
			<rect
   x="352.82101"
   y="408.66"
   width="1.604"
   height="9.2580004"
   id="rect76"
   style="fill:#616872" />
		</g>
	</g><g
     transform="translate(0,-552)"
     id="g78">
		<linearGradient
   id="SVGID_2_"
   gradientUnits="userSpaceOnUse"
   x1="330.78909"
   y1="235.75681"
   x2="485.78909"
   y2="235.75681">
			<stop
   offset="0"
   style="stop-color:#030102"
   id="stop81" />
			<stop
   offset="0.18"
   style="stop-color:#020605"
   id="stop83" />
			<stop
   offset="0.38"
   style="stop-color:#191919"
   id="stop85" />
			<stop
   offset="0.56"
   style="stop-color:#373737"
   id="stop87" />
			<stop
   offset="0.77"
   style="stop-color:#3C3A3B"
   id="stop89" />
			<stop
   offset="0.78"
   style="stop-color:#090909"
   id="stop91" />
			<stop
   offset="1"
   style="stop-color:#030000"
   id="stop93" />
		</linearGradient>
		<path
   d="m 485.789,335.757 c 0,5.5 -4.5,10 -10,10 h -135 c -5.5,0 -10,-4.5 -10,-10 v -200 c 0,-5.5 4.5,-10 10,-10 h 135 c 5.5,0 10,4.5 10,10 v 200 z"
   id="path95"
   inkscape:connector-curvature="0"
   style="fill:url(#linearGradient3741)" />
		<path
   stroke-miterlimit="10"
   d="m 485.789,335.757 c 0,5.5 -4.5,10 -10,10 h -135 c -5.5,0 -10,-4.5 -10,-10 v -200 c 0,-5.5 4.5,-10 10,-10 h 135 c 5.5,0 10,4.5 10,10 v 200 z"
   id="path97"
   inkscape:connector-curvature="0"
   style="fill:none;stroke:#000000;stroke-miterlimit:10" />
	</g><rect
     x="343.289"
     y="-413.74402"
     stroke-miterlimit="10"
     width="130"
     height="195"
     id="rect99"
     style="fill:#202123;stroke:#ffffff;stroke-miterlimit:10" /><g
     transform="translate(0,-552)"
     id="g101">
		<linearGradient
   id="SVGID_3_"
   gradientUnits="userSpaceOnUse"
   x1="322.0015"
   y1="110.751"
   x2="334.49509"
   y2="110.751">
			<stop
   offset="0"
   style="stop-color:#EEEBE9"
   id="stop104" />
			<stop
   offset="0"
   style="stop-color:#DFDEDE"
   id="stop106" />
			<stop
   offset="0"
   style="stop-color:#DADADA"
   id="stop108" />
			<stop
   offset="0.0823"
   style="stop-color:#F6F6F6"
   id="stop110" />
			<stop
   offset="0.1067"
   style="stop-color:#FFFFFF"
   id="stop112" />
			<stop
   offset="0.1321"
   style="stop-color:#F5F5F5"
   id="stop114" />
			<stop
   offset="0.1747"
   style="stop-color:#DBDBDB"
   id="stop116" />
			<stop
   offset="0.2291"
   style="stop-color:#B1B1B1"
   id="stop118" />
			<stop
   offset="0.2472"
   style="stop-color:#A1A1A1"
   id="stop120" />
			<stop
   offset="0.2719"
   style="stop-color:#A4A4A4"
   id="stop122" />
			<stop
   offset="0.2868"
   style="stop-color:#ACACAC"
   id="stop124" />
			<stop
   offset="0.299"
   style="stop-color:#BABABA"
   id="stop126" />
			<stop
   offset="0.3098"
   style="stop-color:#CECECE"
   id="stop128" />
			<stop
   offset="0.3146"
   style="stop-color:#DADADA"
   id="stop130" />
			<stop
   offset="0.3609"
   style="stop-color:#D0D0D0"
   id="stop132" />
			<stop
   offset="0.4388"
   style="stop-color:#B6B6B6"
   id="stop134" />
			<stop
   offset="0.5388"
   style="stop-color:#8C8C8B"
   id="stop136" />
			<stop
   offset="0.6461"
   style="stop-color:#575756"
   id="stop138" />
			<stop
   offset="0.6742"
   style="stop-color:#616160"
   id="stop140" />
			<stop
   offset="0.7214"
   style="stop-color:#7A7A7A"
   id="stop142" />
			<stop
   offset="0.7416"
   style="stop-color:#878787"
   id="stop144" />
			<stop
   offset="0.7442"
   style="stop-color:#787878"
   id="stop146" />
			<stop
   offset="0.7511"
   style="stop-color:#585857"
   id="stop148" />
			<stop
   offset="0.7581"
   style="stop-color:#3E3E3C"
   id="stop150" />
			<stop
   offset="0.7653"
   style="stop-color:#2C2C2A"
   id="stop152" />
			<stop
   offset="0.7728"
   style="stop-color:#21211F"
   id="stop154" />
			<stop
   offset="0.7809"
   style="stop-color:#1D1D1B"
   id="stop156" />
			<stop
   offset="0.7906"
   style="stop-color:#494948"
   id="stop158" />
			<stop
   offset="0.8027"
   style="stop-color:#797978"
   id="stop160" />
			<stop
   offset="0.8152"
   style="stop-color:#A2A2A1"
   id="stop162" />
			<stop
   offset="0.8278"
   style="stop-color:#C4C4C3"
   id="stop164" />
			<stop
   offset="0.8406"
   style="stop-color:#DEDEDE"
   id="stop166" />
			<stop
   offset="0.8537"
   style="stop-color:#F0F0F0"
   id="stop168" />
			<stop
   offset="0.8673"
   style="stop-color:#FBFBFB"
   id="stop170" />
			<stop
   offset="0.882"
   style="stop-color:#FFFFFF"
   id="stop172" />
			<stop
   offset="0.8899"
   style="stop-color:#F6F5F5"
   id="stop174" />
			<stop
   offset="0.9158"
   style="stop-color:#DCDBDB"
   id="stop176" />
			<stop
   offset="0.9424"
   style="stop-color:#CAC9C9"
   id="stop178" />
			<stop
   offset="0.97"
   style="stop-color:#BFBEBE"
   id="stop180" />
			<stop
   offset="1"
   style="stop-color:#BBBABA"
   id="stop182" />
		</linearGradient>
		<path
   d="m 334.495,110.821 c 0,0.233 -1.049,0.422 -2.342,0.422 h -7.809 c -1.293,0 -2.342,-0.189 -2.342,-0.422 v -0.14 c 0,-0.233 1.049,-0.422 2.342,-0.422 h 7.809 c 1.293,0 2.342,0.189 2.342,0.422 v 0.14 z"
   id="path184"
   inkscape:connector-curvature="0"
   style="fill:url(#linearGradient3743)" />
		<linearGradient
   id="SVGID_4_"
   gradientUnits="userSpaceOnUse"
   x1="322.0015"
   y1="111.7534"
   x2="334.49509"
   y2="111.7534">
			<stop
   offset="0"
   style="stop-color:#EEEBE9"
   id="stop187" />
			<stop
   offset="0"
   style="stop-color:#DFDEDE"
   id="stop189" />
			<stop
   offset="0"
   style="stop-color:#DADADA"
   id="stop191" />
			<stop
   offset="0.0823"
   style="stop-color:#F6F6F6"
   id="stop193" />
			<stop
   offset="0.1067"
   style="stop-color:#FFFFFF"
   id="stop195" />
			<stop
   offset="0.1321"
   style="stop-color:#F5F5F5"
   id="stop197" />
			<stop
   offset="0.1747"
   style="stop-color:#DBDBDB"
   id="stop199" />
			<stop
   offset="0.2291"
   style="stop-color:#B1B1B1"
   id="stop201" />
			<stop
   offset="0.2472"
   style="stop-color:#A1A1A1"
   id="stop203" />
			<stop
   offset="0.2719"
   style="stop-color:#A4A4A4"
   id="stop205" />
			<stop
   offset="0.2868"
   style="stop-color:#ACACAC"
   id="stop207" />
			<stop
   offset="0.299"
   style="stop-color:#BABABA"
   id="stop209" />
			<stop
   offset="0.3098"
   style="stop-color:#CECECE"
   id="stop211" />
			<stop
   offset="0.3146"
   style="stop-color:#DADADA"
   id="stop213" />
			<stop
   offset="0.3609"
   style="stop-color:#D0D0D0"
   id="stop215" />
			<stop
   offset="0.4388"
   style="stop-color:#B6B6B6"
   id="stop217" />
			<stop
   offset="0.5388"
   style="stop-color:#8C8C8B"
   id="stop219" />
			<stop
   offset="0.6461"
   style="stop-color:#575756"
   id="stop221" />
			<stop
   offset="0.6742"
   style="stop-color:#616160"
   id="stop223" />
			<stop
   offset="0.7214"
   style="stop-color:#7A7A7A"
   id="stop225" />
			<stop
   offset="0.7416"
   style="stop-color:#878787"
   id="stop227" />
			<stop
   offset="0.7442"
   style="stop-color:#787878"
   id="stop229" />
			<stop
   offset="0.7511"
   style="stop-color:#585857"
   id="stop231" />
			<stop
   offset="0.7581"
   style="stop-color:#3E3E3C"
   id="stop233" />
			<stop
   offset="0.7653"
   style="stop-color:#2C2C2A"
   id="stop235" />
			<stop
   offset="0.7728"
   style="stop-color:#21211F"
   id="stop237" />
			<stop
   offset="0.7809"
   style="stop-color:#1D1D1B"
   id="stop239" />
			<stop
   offset="0.7906"
   style="stop-color:#494948"
   id="stop241" />
			<stop
   offset="0.8027"
   style="stop-color:#797978"
   id="stop243" />
			<stop
   offset="0.8152"
   style="stop-color:#A2A2A1"
   id="stop245" />
			<stop
   offset="0.8278"
   style="stop-color:#C4C4C3"
   id="stop247" />
			<stop
   offset="0.8406"
   style="stop-color:#DEDEDE"
   id="stop249" />
			<stop
   offset="0.8537"
   style="stop-color:#F0F0F0"
   id="stop251" />
			<stop
   offset="0.8673"
   style="stop-color:#FBFBFB"
   id="stop253" />
			<stop
   offset="0.882"
   style="stop-color:#FFFFFF"
   id="stop255" />
			<stop
   offset="0.8899"
   style="stop-color:#F6F5F5"
   id="stop257" />
			<stop
   offset="0.9158"
   style="stop-color:#DCDBDB"
   id="stop259" />
			<stop
   offset="0.9424"
   style="stop-color:#CAC9C9"
   id="stop261" />
			<stop
   offset="0.97"
   style="stop-color:#BFBEBE"
   id="stop263" />
			<stop
   offset="1"
   style="stop-color:#BBBABA"
   id="stop265" />
		</linearGradient>
		<rect
   x="322.00101"
   y="110.681"
   width="12.494"
   height="2.145"
   id="rect267"
   style="fill:url(#linearGradient3745)" />
	</g></g>
<rect
   style="fill:none;stroke:none"
   id="rect3747"
   width="48"
   height="48"
   x="0"
   y="0" /></svg>