<?xml version="1.0" encoding="UTF-8" standalone="no"?>
<!-- Created with Inkscape (http://www.inkscape.org/) -->

<svg
   xmlns:dc="http://purl.org/dc/elements/1.1/"
   xmlns:cc="http://creativecommons.org/ns#"
   xmlns:rdf="http://www.w3.org/1999/02/22-rdf-syntax-ns#"
   xmlns:svg="http://www.w3.org/2000/svg"
   xmlns="http://www.w3.org/2000/svg"
   xmlns:xlink="http://www.w3.org/1999/xlink"
   xmlns:sodipodi="http://sodipodi.sourceforge.net/DTD/sodipodi-0.dtd"
   xmlns:inkscape="http://www.inkscape.org/namespaces/inkscape"
   width="48"
   height="48"
   id="svg8513"
   version="1.1"
   inkscape:version="0.48.2 r9819"
   sodipodi:docname="printer.svg">
  <defs
     id="defs8515">
    <linearGradient
       inkscape:collect="always"
       xlink:href="#linearGradient8140"
       id="linearGradient8220"
       gradientUnits="userSpaceOnUse"
       gradientTransform="matrix(1,0,0,0.78399091,-8.079887,156.42073)"
       x1="356.01141"
       y1="600.81055"
       x2="356.01141"
       y2="579.06647" />
    <linearGradient
       id="linearGradient8140">
      <stop
         style="stop-color:#959595;stop-opacity:1;"
         offset="0"
         id="stop8142" />
      <stop
         id="stop8144"
         offset="0.1564638"
         style="stop-color:#e0e0e0;stop-opacity:1;" />
      <stop
         id="stop8146"
         offset="0.75194097"
         style="stop-color:#ededed;stop-opacity:1;" />
      <stop
         style="stop-color:#868686;stop-opacity:1;"
         offset="1"
         id="stop8148" />
    </linearGradient>
    <linearGradient
       inkscape:collect="always"
       xlink:href="#linearGradient4846"
       id="linearGradient8044"
       gradientUnits="userSpaceOnUse"
       gradientTransform="translate(208.43658,605.82824)"
       x1="116.64389"
       y1="31.333487"
       x2="161.78897"
       y2="31.333487" />
    <linearGradient
       id="linearGradient4846">
      <stop
         style="stop-color:#626262;stop-opacity:1;"
         offset="0"
         id="stop4848" />
      <stop
         id="stop4858"
         offset="0.01761973"
         style="stop-color:#ababab;stop-opacity:1;" />
      <stop
         id="stop4850"
         offset="0.04698669"
         style="stop-color:#ffffff;stop-opacity:1;" />
      <stop
         id="stop4852"
         offset="0.35622254"
         style="stop-color:#c7c7c7;stop-opacity:1;" />
      <stop
         style="stop-color:#ffffff;stop-opacity:1;"
         offset="0.95644945"
         id="stop4856" />
      <stop
         id="stop4860"
         offset="0.97822475"
         style="stop-color:#ababab;stop-opacity:1;" />
      <stop
         style="stop-color:#626262;stop-opacity:1;"
         offset="1"
         id="stop4854" />
    </linearGradient>
    <linearGradient
       inkscape:collect="always"
       xlink:href="#linearGradient7983"
       id="linearGradient8038"
       gradientUnits="userSpaceOnUse"
       gradientTransform="translate(145.35221,608.19549)"
       x1="179.81503"
       y1="37.171722"
       x2="225.70694"
       y2="37.171722" />
    <linearGradient
       id="linearGradient7983">
      <stop
         style="stop-color:#000000;stop-opacity:1;"
         offset="0"
         id="stop7985" />
      <stop
         id="stop7987"
         offset="0.04053095"
         style="stop-color:#848484;stop-opacity:1;" />
      <stop
         style="stop-color:#000000;stop-opacity:1;"
         offset="0.11928526"
         id="stop7989" />
      <stop
         id="stop7991"
         offset="0.87064826"
         style="stop-color:#000000;stop-opacity:1;" />
      <stop
         style="stop-color:#5a5a5a;stop-opacity:1;"
         offset="0.96640164"
         id="stop7993" />
      <stop
         style="stop-color:#000000;stop-opacity:1;"
         offset="1"
         id="stop7995" />
    </linearGradient>
    <linearGradient
       inkscape:collect="always"
       xlink:href="#linearGradient7983"
       id="linearGradient8032"
       gradientUnits="userSpaceOnUse"
       gradientTransform="translate(145.37891,591.98728)"
       x1="179.87579"
       y1="37.773869"
       x2="225.70694"
       y2="37.773869" />
    <linearGradient
       id="linearGradient8555">
      <stop
         style="stop-color:#000000;stop-opacity:1;"
         offset="0"
         id="stop8557" />
      <stop
         id="stop8559"
         offset="0.04053095"
         style="stop-color:#848484;stop-opacity:1;" />
      <stop
         style="stop-color:#000000;stop-opacity:1;"
         offset="0.11928526"
         id="stop8561" />
      <stop
         id="stop8563"
         offset="0.87064826"
         style="stop-color:#000000;stop-opacity:1;" />
      <stop
         style="stop-color:#5a5a5a;stop-opacity:1;"
         offset="0.96640164"
         id="stop8565" />
      <stop
         style="stop-color:#000000;stop-opacity:1;"
         offset="1"
         id="stop8567" />
    </linearGradient>
    <linearGradient
       inkscape:collect="always"
       xlink:href="#linearGradient8092"
       id="linearGradient8090"
       x1="333.70633"
       y1="626.37421"
       x2="333.70633"
       y2="630.12933"
       gradientUnits="userSpaceOnUse" />
    <linearGradient
       id="linearGradient8092">
      <stop
         id="stop8094"
         offset="0"
         style="stop-color:#ffffff;stop-opacity:1;" />
      <stop
         style="stop-color:#ffffff;stop-opacity:0.58510637;"
         offset="0.5"
         id="stop8098" />
      <stop
         id="stop8096"
         offset="1"
         style="stop-color:#ffffff;stop-opacity:1;" />
    </linearGradient>
    <linearGradient
       inkscape:collect="always"
       xlink:href="#linearGradient7947"
       id="linearGradient8192"
       gradientUnits="userSpaceOnUse"
       gradientTransform="translate(208.40237,605.73406)"
       x1="138.91542"
       y1="37.618633"
       x2="138.91542"
       y2="36.010155" />
    <linearGradient
       id="linearGradient7947">
      <stop
         id="stop7949"
         offset="0"
         style="stop-color:#ffffff;stop-opacity:1;" />
      <stop
         id="stop7951"
         offset="1"
         style="stop-color:#ffffff;stop-opacity:0;" />
    </linearGradient>
    <linearGradient
       inkscape:collect="always"
       xlink:href="#linearGradient7963"
       id="linearGradient8189"
       gradientUnits="userSpaceOnUse"
       gradientTransform="translate(153.08467,609.23406)"
       x1="179.46417"
       y1="37.448074"
       x2="209.81184"
       y2="36.994949" />
    <linearGradient
       id="linearGradient7963">
      <stop
         id="stop7965"
         offset="0"
         style="stop-color:#000000;stop-opacity:1;" />
      <stop
         style="stop-color:#848484;stop-opacity:1;"
         offset="0.03981626"
         id="stop7967" />
      <stop
         id="stop7971"
         offset="0.08496448"
         style="stop-color:#000000;stop-opacity:1;" />
      <stop
         style="stop-color:#000000;stop-opacity:1;"
         offset="0.94245821"
         id="stop7973" />
      <stop
         id="stop7975"
         offset="0.97122908"
         style="stop-color:#5a5a5a;stop-opacity:1;" />
      <stop
         id="stop7969"
         offset="1"
         style="stop-color:#000000;stop-opacity:1;" />
    </linearGradient>
    <linearGradient
       inkscape:collect="always"
       xlink:href="#linearGradient8140"
       id="linearGradient3262"
       gradientUnits="userSpaceOnUse"
       gradientTransform="matrix(1,0,0,0.78399091,-8.079887,156.42073)"
       x1="356.01141"
       y1="600.81055"
       x2="356.01141"
       y2="579.06647" />
    <linearGradient
       inkscape:collect="always"
       xlink:href="#linearGradient4846"
       id="linearGradient3264"
       gradientUnits="userSpaceOnUse"
       gradientTransform="translate(208.43658,605.82824)"
       x1="116.64389"
       y1="31.333487"
       x2="161.78897"
       y2="31.333487" />
    <linearGradient
       inkscape:collect="always"
       xlink:href="#linearGradient7983"
       id="linearGradient3266"
       gradientUnits="userSpaceOnUse"
       gradientTransform="translate(145.35221,608.19549)"
       x1="179.81503"
       y1="37.171722"
       x2="225.70694"
       y2="37.171722" />
    <linearGradient
       inkscape:collect="always"
       xlink:href="#linearGradient7983"
       id="linearGradient3268"
       gradientUnits="userSpaceOnUse"
       gradientTransform="translate(145.37891,591.98728)"
       x1="179.87579"
       y1="37.773869"
       x2="225.70694"
       y2="37.773869" />
    <linearGradient
       inkscape:collect="always"
       xlink:href="#linearGradient8092"
       id="linearGradient3270"
       gradientUnits="userSpaceOnUse"
       x1="333.70633"
       y1="626.37421"
       x2="333.70633"
       y2="630.12933" />
    <linearGradient
       inkscape:collect="always"
       xlink:href="#linearGradient7947"
       id="linearGradient3272"
       gradientUnits="userSpaceOnUse"
       gradientTransform="translate(208.40237,605.73406)"
       x1="138.91542"
       y1="37.618633"
       x2="138.91542"
       y2="36.010155" />
    <linearGradient
       inkscape:collect="always"
       xlink:href="#linearGradient7963"
       id="linearGradient3274"
       gradientUnits="userSpaceOnUse"
       gradientTransform="translate(153.08467,609.23406)"
       x1="179.46417"
       y1="37.448074"
       x2="209.81184"
       y2="36.994949" />
  </defs>
  <sodipodi:namedview
     id="base"
     pagecolor="#ffffff"
     bordercolor="#666666"
     borderopacity="1.0"
     inkscape:pageopacity="0.0"
     inkscape:pageshadow="2"
     inkscape:zoom="5.6"
     inkscape:cx="28.924362"
     inkscape:cy="32.890798"
     inkscape:document-units="px"
     inkscape:current-layer="layer1"
     showgrid="false"
     fit-margin-top="0"
     fit-margin-left="0"
     fit-margin-right="0"
     fit-margin-bottom="0"
     inkscape:window-width="1280"
     inkscape:window-height="777"
     inkscape:window-x="0"
     inkscape:window-y="0"
     inkscape:window-maximized="1" />
  <metadata
     id="metadata8518">
    <rdf:RDF>
      <cc:Work
         rdf:about="">
        <dc:format>image/svg+xml</dc:format>
        <dc:type
           rdf:resource="http://purl.org/dc/dcmitype/StillImage" />
        <dc:title />
      </cc:Work>
    </rdf:RDF>
  </metadata>
  <g
     inkscape:label="Capa 1"
     inkscape:groupmode="layer"
     id="layer1"
     transform="translate(-502.80655,-498.3864)">
    <rect
       style="fill:none;stroke:none"
       id="rect9181"
       width="48"
       height="48"
       x="502.80655"
       y="498.38641"
       ry="0.76729941" />
    <g
       id="g8250"
       transform="translate(179.11519,-108.33524)">
      <g
         id="g8226">
        <path
           style="fill:#666666;fill-opacity:1;fill-rule:evenodd;stroke:none"
           d="m 337.76827,613.65703 19.89223,0 c 0.70066,0 1.25862,0.10369 1.26475,0.58082 0.0538,4.18155 -0.0205,8.95268 -0.0205,12.82293 0,0.47869 -0.54362,0.83888 -1.24428,0.83888 l -19.89223,0 c -0.70068,0 -1.29838,-0.36019 -1.29838,-0.83888 0,-4.24599 -0.0534,-8.56463 0.0337,-12.74345 0.0107,-0.47572 0.56407,-0.6603 1.26474,-0.6603 z"
           id="path3054"
           inkscape:connector-curvature="0"
           sodipodi:nodetypes="sssssssss" />
        <g
           id="g8150"
           transform="translate(-0.40626258,0)">
          <path
             sodipodi:nodetypes="ccccc"
             inkscape:connector-curvature="0"
             id="path8118"
             d="m 334.95769,621.32944 c 8.72488,0.77214 17.60056,0.63945 26.5607,0 l 0,8.88303 -26.60489,0 z"
             style="fill:#000000;stroke:none" />
          <rect
             ry="0.50823301"
             y="620.92065"
             x="333.99844"
             height="10.518213"
             width="0.99049515"
             id="rect8114"
             style="fill:#000000;stroke:#666666;stroke-width:0.1;stroke-linecap:butt;stroke-linejoin:round;stroke-miterlimit:4;stroke-opacity:1;stroke-dasharray:none;stroke-dashoffset:0" />
          <rect
             style="fill:#000000;stroke:#666666;stroke-width:0.1;stroke-linecap:butt;stroke-linejoin:round;stroke-miterlimit:4;stroke-opacity:1;stroke-dasharray:none;stroke-dashoffset:0"
             id="rect8116"
             width="0.99049515"
             height="10.518213"
             x="361.22208"
             y="620.92065"
             ry="0.50823301" />
        </g>
        <path
           sodipodi:nodetypes="sssssssss"
           inkscape:connector-curvature="0"
           id="path8120"
           d="m 337.99129,613.8356 19.44551,0 c 0.68493,0 1.23036,0.10239 1.23635,0.57354 0.0526,4.12912 -0.02,8.84043 -0.02,12.66216 0,0.47269 -0.53141,0.82836 -1.21634,0.82836 l -19.44551,0 c -0.68495,0 -1.26923,-0.35567 -1.26923,-0.82836 0,-4.19276 -0.0522,-8.45725 0.0329,-12.58368 0.0105,-0.46975 0.5514,-0.65202 1.23634,-0.65202 z"
           style="fill:url(#linearGradient3262);fill-opacity:1;fill-rule:evenodd;stroke:none" />
      </g>
      <g
         id="g8233">
        <g
           id="g8169">
          <path
             sodipodi:nodetypes="ccccccc"
             inkscape:connector-curvature="0"
             id="path8073"
             d="m 324.82635,629.91207 2.57698,-2.61294 40.28264,0.0444 2.68619,2.43441 c 0.2242,0.18757 0.68768,0.72164 -1.01047,0.72164 l -43.84525,-0.0329 c -0.75288,0 -0.76207,-0.27801 -0.69009,-0.5545 z"
             style="fill:#000000;stroke:none" />
          <path
             style="fill:url(#linearGradient3264);fill-opacity:1;stroke:none"
             d="m 324.78951,630.15674 0,13.609 c 0.30829,0.42829 1.20727,0.54385 2.21591,0.60135 l 6.05616,-0.11049 0,-8.24197 c 0.095,-0.55957 0.45844,-0.85522 1.17187,-1.06139 l 26.78125,0 c 0.55173,0.11385 1.10564,0.0668 1.3125,1.15782 l 0,8.15625 6.39063,0.15468 c 0.66359,-0.11427 1.36176,-0.17423 1.88716,-0.50566 l 0,-13.83809 c -0.3634,0.19771 -0.67736,0.29262 -1.26413,0.39179 l -43.06053,0 c -0.44909,4.1e-4 -0.73918,-0.0213 -0.9583,-0.0715 -0.21913,-0.0501 -0.36729,-0.12866 -0.53252,-0.24181 z"
             id="path7721"
             inkscape:connector-curvature="0"
             sodipodi:nodetypes="ccccccccccccccsc" />
          <path
             style="fill:url(#linearGradient3266);fill-opacity:1;stroke:none"
             d="m 370.14452,645.97379 0,-1.81317 c -0.43568,0.21732 -0.60794,0.33415 -1.29004,0.39959 l -42.46084,-0.0781 c -0.49087,-0.0199 -0.83503,-0.13882 -1.26866,-0.34066 l 0,1.9115 c 0.17471,0.26041 0.58746,0.4603 1.20739,0.50683 l 42.0682,0 c 0.70225,-0.0194 1.30969,-0.21302 1.74395,-0.53128 z"
             id="path7977"
             inkscape:connector-curvature="0"
             sodipodi:nodetypes="cccccccccc" />
          <path
             sodipodi:nodetypes="cccccccccc"
             inkscape:connector-curvature="0"
             id="path8009"
             d="m 370.22201,630.16401 0,-1.07879 c -0.38731,0.59394 -0.8346,0.54594 -1.93588,0.54594 l -41.35798,0 c -0.78774,-0.0238 -1.33503,-0.11325 -1.74913,-0.37368 l 0,0.89197 c 0.2387,0.31291 0.69688,0.41921 1.72424,0.41921 l 41.35083,0 c 1.22859,0 1.57696,-0.12162 1.96792,-0.40457 z"
             style="fill:url(#linearGradient3268);fill-opacity:1;stroke:none" />
          <path
             style="fill:none;stroke:#919191;stroke-width:0.19179885;stroke-miterlimit:4;stroke-opacity:1;stroke-dasharray:none"
             d="m 325.29235,628.96134 2.26187,-2.07576 c 13.23232,-0.54587 26.46465,-0.6987 39.69697,-0.0691 l 2.65715,2.02026 c 0.22178,0.17439 0.68025,0.67092 -0.99955,0.67092 l -42.93381,-0.0307 c -0.74474,0 -0.75383,-0.25846 -0.68263,-0.51552 z"
             id="path8075"
             inkscape:connector-curvature="0"
             sodipodi:nodetypes="cccccccc" />
          <path
             sodipodi:nodetypes="cccccccc"
             inkscape:connector-curvature="0"
             id="path8077"
             d="m 325.29235,628.96134 2.26187,-2.07576 c 13.23232,-0.54587 26.46465,-0.6987 39.69697,-0.0691 l 2.65715,2.02026 c 0.22178,0.17439 0.68025,0.67092 -0.99955,0.67092 l -42.93381,-0.0307 c -0.74474,0 -0.75383,-0.25846 -0.68263,-0.51552 z"
             style="fill:#000000;stroke:none" />
          <path
             sodipodi:nodetypes="cccsccc"
             inkscape:connector-curvature="0"
             id="path8079"
             d="m 347.42161,626.40626 c -6.61616,0.0277 -13.22759,0.19582 -19.84375,0.46875 l -2.28125,2.09375 c -0.0712,0.25706 -0.0572,0.5 0.6875,0.5 l 17.65625,0 c 1.26588,-1.10165 3.23074,-2.33702 7.9375,-3.0625 -0.83222,-10e-4 -3.32403,-0.003 -4.15625,0 z"
             style="opacity:0.45;fill:url(#linearGradient3270);fill-opacity:1;stroke:none" />
        </g>
        <rect
           style="fill:#000000;fill-opacity:1;stroke:none"
           id="rect7857"
           width="29.324093"
           height="10.539199"
           x="333.0372"
           y="634.85461"
           ry="1.7685659" />
        <path
           style="fill:url(#linearGradient3272);fill-opacity:1;stroke:none"
           d="m 335.71487,642.04656 -1.125,2.59375 26.21875,0 -0.68152,-2.54347 z"
           id="path7935"
           inkscape:connector-curvature="0" />
        <path
           style="fill:url(#linearGradient3274);fill-opacity:1;stroke:none"
           d="m 362.89652,647.30142 0,-1.31478 c -0.41031,0.12881 -0.84558,0.19521 -1.31478,0.17678 l -27.49982,0 c -0.72067,0.0346 -1.21272,-0.11914 -1.57995,-0.37565 l 0,1.30373 c 0.13633,0.18144 0.2369,0.36575 0.87786,0.50683 l 28.27925,0 c 0.399,-0.0316 0.87999,-0.0356 1.23744,-0.29691 z"
           id="path7953"
           inkscape:connector-curvature="0"
           sodipodi:nodetypes="ccccccccc" />
        <g
           id="g8108"
           transform="translate(-3.709245,17.15717)"
           style="stroke:#44b3d1;stroke-opacity:1">
          <path
             transform="translate(153.00224,620.49053)"
             d="m 199.26562,-4.875 c 0,0.4746197 -0.38475,0.859375 -0.85937,0.859375 -0.47462,0 -0.85938,-0.3847553 -0.85938,-0.859375 0,-0.4746197 0.38476,-0.859375 0.85938,-0.859375 0.47462,0 0.85937,0.3847553 0.85937,0.859375 z"
             sodipodi:ry="0.859375"
             sodipodi:rx="0.859375"
             sodipodi:cy="-4.875"
             sodipodi:cx="198.40625"
             id="path8100"
             style="fill:none;stroke:#44b3d1;stroke-width:0.2;stroke-linecap:round;stroke-linejoin:round;stroke-miterlimit:4;stroke-opacity:1;stroke-dasharray:none;stroke-dashoffset:0"
             sodipodi:type="arc" />
          <path
             transform="matrix(0.4328606,-0.18998888,0.18998888,0.4328606,266.4754,655.42572)"
             style="fill:none;stroke:#44b3d1;stroke-width:0.41250646;stroke-linecap:butt;stroke-linejoin:round;stroke-miterlimit:4;stroke-opacity:1;stroke-dashoffset:0"
             d="m 199.26562,-4.875 c 0,0.4746197 -0.38475,0.859375 -0.85937,0.859375 -0.47462,0 -0.85938,-0.3847553 -0.85938,-0.859375 0,-0.2279204 0.0905,-0.4465058 0.25171,-0.6076699"
             id="path8102"
             inkscape:connector-curvature="0" />
          <path
             inkscape:connector-curvature="0"
             id="path8104"
             d="m 351.40849,615.67803 0,-0.54208"
             style="fill:none;stroke:#44b3d1;stroke-width:0.1;stroke-linecap:butt;stroke-linejoin:miter;stroke-miterlimit:4;stroke-opacity:1;stroke-dasharray:none"
             sodipodi:nodetypes="cc" />
        </g>
      </g>
    </g>
  </g>
</svg>
